<svg width="192" height="192" viewBox="0 0 192 192" xmlns="http://www.w3.org/2000/svg">
  <defs>
    <linearGradient id="grad1" x1="0%" y1="0%" x2="100%" y2="100%">
      <stop offset="0%" style="stop-color:#2563eb;stop-opacity:1" />
      <stop offset="100%" style="stop-color:#1d4ed8;stop-opacity:1" />
    </linearGradient>
  </defs>
  
  <!-- Background circle -->
  <circle cx="96" cy="96" r="88" fill="url(#grad1)" stroke="#1e40af" stroke-width="4"/>
  
  <!-- Calendar icon -->
  <rect x="48" y="64" width="96" height="64" rx="8" fill="white" stroke="#1e40af" stroke-width="2"/>
  
  <!-- Calendar top bar -->
  <rect x="48" y="64" width="96" height="16" rx="8" fill="#1e40af"/>
  
  <!-- Calendar rings -->
  <circle cx="72" cy="72" r="2" fill="white"/>
  <circle cx="88" cy="72" r="2" fill="white"/>
  <circle cx="104" cy="72" r="2" fill="white"/>
  <circle cx="120" cy="72" r="2" fill="white"/>
  
  <!-- Calendar grid -->
  <line x1="56" y1="88" x2="136" y2="88" stroke="#e5e7eb" stroke-width="1"/>
  <line x1="56" y1="104" x2="136" y2="104" stroke="#e5e7eb" stroke-width="1"/>
  <line x1="56" y1="120" x2="136" y2="120" stroke="#e5e7eb" stroke-width="1"/>
  
  <line x1="72" y1="80" x2="72" y2="128" stroke="#e5e7eb" stroke-width="1"/>
  <line x1="88" y1="80" x2="88" y2="128" stroke="#e5e7eb" stroke-width="1"/>
  <line x1="104" y1="80" x2="104" y2="128" stroke="#e5e7eb" stroke-width="1"/>
  <line x1="120" y1="80" x2="120" y2="128" stroke="#e5e7eb" stroke-width="1"/>
  
  <!-- Family icon -->
  <circle cx="96" cy="140" r="8" fill="#fbbf24"/>
  <circle cx="80" cy="150" r="6" fill="#fbbf24"/>
  <circle cx="112" cy="150" r="6" fill="#fbbf24"/>
</svg>
